<svg width="296" height="27" viewBox="0 0 296 27" fill="none" xmlns="http://www.w3.org/2000/svg">
<path d="M6.30263 10.3543H18.1515C20.4187 10.3543 22.2801 10.7003 23.7359 11.3924C25.1916 12.0845 26.2775 13.063 26.9934 14.3278C27.7093 15.5688 28.0673 17.0245 28.0673 18.6951C28.0673 20.3656 27.6736 21.8333 26.886 23.0981C26.0985 24.3391 24.9649 25.3056 23.4853 25.9977C22.0057 26.6659 20.2277 27 18.1515 27H0.682468L2.75871 13.0749L0.682468 0.152104H25.9911V5.77226H5.30031L8.12828 2.37153L9.81075 12.9317L7.9851 24.9954L5.15712 21.5946H17.185C18.2589 21.5946 19.1061 21.3202 19.7266 20.7713C20.3709 20.2224 20.6931 19.4707 20.6931 18.5161C20.6931 17.5376 20.3709 16.7859 19.7266 16.2608C19.1061 15.712 18.2589 15.4375 17.185 15.4375H6.30263V10.3543ZM52.0442 0.152104V6.77459H35.7206L39.0498 3.40965V27H31.6398V0.152104H52.0442ZM63.6489 3.40965H71.0947V27H63.6489V3.40965ZM53.4109 0.152104H81.3327V6.73879H53.4109V0.152104ZM90.8676 27L95.7002 18.5877H95.8076L106.296 0.152104H114.351L98.922 27H90.8676ZM95.5928 23.3845L82.1689 0.152104H90.3665L100.855 18.4087L95.5928 23.3845ZM156.424 20.4133L153.095 23.7783V0.152104H160.505V27H116.868V0.152104H124.278V23.7783L120.949 20.4133H137.988L134.981 23.7783V0.152104H142.391V23.7783L139.277 20.4133H156.424ZM165.53 0.152104H172.94V27H165.53V0.152104ZM186.65 0.152104H194.096V27H186.65V0.152104ZM169.682 10.0679H189.729V16.6546H169.682V10.0679ZM199.124 27V0.152104H206.427V23.0981L204.387 22.6327L219.6 0.152104H229.302V27H221.963V3.62443L224.039 4.0898L208.539 27H199.124ZM234.327 27V0.152104H241.702V21.0935L239.733 19.5542L254.947 0.152104H262.786L241.021 27H234.327ZM247.143 14.1846L252.584 9.67416L263.144 27H254.732L247.143 14.1846ZM265.475 27V0.152104H272.778V23.0981L270.737 22.6327L285.951 0.152104H295.652V27H288.314V3.62443L290.39 4.0898L274.89 27H265.475Z" fill="#FF7CCE"/>
</svg>
