<svg width="298" height="26" viewBox="0 0 298 26" fill="none" xmlns="http://www.w3.org/2000/svg">
<path d="M14.3109 25.0556C11.8793 25.0556 9.69511 24.6435 7.75815 23.8192C5.8418 22.995 4.28604 21.841 3.0909 20.3574C1.89575 18.8738 1.15393 17.1532 0.865451 15.1956H7.2327C7.41815 16.1435 7.81997 16.9574 8.43815 17.6374C9.05633 18.3174 9.85996 18.8429 10.849 19.2138C11.8381 19.5641 12.9715 19.7392 14.249 19.7392C15.7945 19.7392 17.1133 19.4714 18.2054 18.9356C19.2975 18.3998 20.132 17.6271 20.709 16.6174C21.3066 15.6077 21.6054 14.392 21.6054 12.9702C21.6054 11.5484 21.3066 10.3326 20.709 9.32291C20.132 8.31322 19.2975 7.5405 18.2054 7.00474C17.1133 6.46898 15.7945 6.20111 14.249 6.20111C12.9715 6.20111 11.8381 6.38656 10.849 6.75747C9.88057 7.10777 9.08724 7.62292 8.46906 8.30292C7.85088 8.96231 7.43876 9.77624 7.2327 10.7447H0.865451C1.15393 8.76655 1.89575 7.04595 3.0909 5.58293C4.28604 4.0993 5.8418 2.94536 7.75815 2.12112C9.69511 1.29688 11.8793 0.884765 14.3109 0.884765C17.0308 0.884765 19.4108 1.38961 21.4508 2.3993C23.4908 3.409 25.0775 4.82051 26.2108 6.63383C27.3647 8.44716 27.9417 10.5593 27.9417 12.9702C27.9417 15.3811 27.3647 17.4932 26.2108 19.3065C25.0775 21.1198 23.4908 22.5313 21.4508 23.541C19.4108 24.5507 17.0308 25.0556 14.3109 25.0556ZM24.4799 15.1029H10.4163V10.8375H24.4799V15.1029ZM31.2313 24.561V1.37931H37.5986V19.4611L35.8986 18.132L49.0349 1.37931H55.804L37.0113 24.561H31.2313ZM42.2968 13.4956L46.9949 9.60109L56.1131 24.561H48.8495L42.2968 13.4956ZM69.3208 25.0556C66.5802 25.0556 64.1694 24.5507 62.0881 23.541C60.0275 22.5313 58.4203 21.1198 57.2663 19.3065C56.133 17.4932 55.5664 15.3811 55.5664 12.9702C55.5664 10.5593 56.133 8.44716 57.2663 6.63383C58.4203 4.82051 60.0275 3.409 62.0881 2.3993C64.1694 1.38961 66.5802 0.884765 69.3208 0.884765C72.082 0.884765 74.4929 1.38961 76.5535 2.3993C78.6141 3.409 80.2214 4.82051 81.3753 6.63383C82.5293 8.44716 83.1062 10.5593 83.1062 12.9702C83.1062 15.3811 82.5293 17.4932 81.3753 19.3065C80.2214 21.1198 78.6141 22.5313 76.5535 23.541C74.4929 24.5507 72.082 25.0556 69.3208 25.0556ZM69.3208 19.3374C70.8251 19.3374 72.1233 19.0798 73.2154 18.5647C74.3075 18.0495 75.142 17.318 75.719 16.3702C76.3166 15.4223 76.6154 14.289 76.6154 12.9702C76.6154 11.6514 76.3166 10.5181 75.719 9.57019C75.142 8.62231 74.3075 7.8908 73.2154 7.37565C72.1233 6.8605 70.8251 6.60292 69.3208 6.60292C67.8372 6.60292 66.5493 6.8605 65.4572 7.37565C64.3651 7.8908 63.5203 8.62231 62.9227 9.57019C62.3251 10.5181 62.0263 11.6514 62.0263 12.9702C62.0263 14.289 62.3251 15.4223 62.9227 16.3702C63.5203 17.318 64.3651 18.0495 65.4572 18.5647C66.5493 19.0798 67.8372 19.3374 69.3208 19.3374ZM86.4087 1.37931H92.8068V24.561H86.4087V1.37931ZM104.645 1.37931H111.074V24.561H104.645V1.37931ZM89.9941 9.94109H107.303V15.6283H89.9941V9.94109ZM128.151 25.0556C125.41 25.0556 122.999 24.5507 120.918 23.541C118.857 22.5313 117.25 21.1198 116.096 19.3065C114.963 17.4932 114.396 15.3811 114.396 12.9702C114.396 10.5593 114.963 8.44716 116.096 6.63383C117.25 4.82051 118.857 3.409 120.918 2.3993C122.999 1.38961 125.41 0.884765 128.151 0.884765C130.912 0.884765 133.323 1.38961 135.383 2.3993C137.444 3.409 139.051 4.82051 140.205 6.63383C141.359 8.44716 141.936 10.5593 141.936 12.9702C141.936 15.3811 141.359 17.4932 140.205 19.3065C139.051 21.1198 137.444 22.5313 135.383 23.541C133.323 24.5507 130.912 25.0556 128.151 25.0556ZM128.151 19.3374C129.655 19.3374 130.953 19.0798 132.045 18.5647C133.137 18.0495 133.972 17.318 134.549 16.3702C135.146 15.4223 135.445 14.289 135.445 12.9702C135.445 11.6514 135.146 10.5181 134.549 9.57019C133.972 8.62231 133.137 7.8908 132.045 7.37565C130.953 6.8605 129.655 6.60292 128.151 6.60292C126.667 6.60292 125.379 6.8605 124.287 7.37565C123.195 7.8908 122.35 8.62231 121.752 9.57019C121.155 10.5181 120.856 11.6514 120.856 12.9702C120.856 14.289 121.155 15.4223 121.752 16.3702C122.35 17.318 123.195 18.0495 124.287 18.5647C125.379 19.0798 126.667 19.3374 128.151 19.3374ZM179.115 1.37931V24.561H173.025V3.66657L174.385 3.82112L165.422 24.561H158.931L149.936 3.88293L151.327 3.72839V24.561H145.238V1.37931H155.129L163.444 21.2847H160.971L169.224 1.37931H179.115ZM183.452 24.561V1.37931H189.757V21.192L187.996 20.7901L201.132 1.37931H209.508V24.561H203.172V4.37748L204.965 4.77929L191.581 24.561H183.452ZM239.595 14.8556C239.368 16.8956 238.668 18.6883 237.493 20.2338C236.319 21.7586 234.773 22.9435 232.857 23.7883C230.961 24.6332 228.777 25.0556 226.304 25.0556C223.605 25.0556 221.245 24.5507 219.226 23.541C217.207 22.5313 215.63 21.1198 214.497 19.3065C213.384 17.4932 212.828 15.3811 212.828 12.9702C212.828 10.5593 213.384 8.44716 214.497 6.63383C215.63 4.82051 217.207 3.409 219.226 2.3993C221.245 1.38961 223.605 0.884765 226.304 0.884765C228.777 0.884765 230.961 1.30719 232.857 2.15203C234.773 2.99688 236.319 4.19202 237.493 5.73747C238.668 7.26232 239.368 9.04473 239.595 11.0847H233.166C232.96 10.0956 232.558 9.2611 231.96 8.5811C231.363 7.8805 230.58 7.34474 229.611 6.97383C228.664 6.60292 227.561 6.41747 226.304 6.41747C224.862 6.41747 223.615 6.68535 222.564 7.2211C221.513 7.73625 220.71 8.48837 220.153 9.47746C219.597 10.4459 219.319 11.6102 219.319 12.9702C219.319 14.3302 219.597 15.5047 220.153 16.4938C220.71 17.4623 221.513 18.2144 222.564 18.7501C223.615 19.2653 224.862 19.5229 226.304 19.5229C227.561 19.5229 228.664 19.3477 229.611 18.9974C230.58 18.6471 231.363 18.1217 231.96 17.4211C232.558 16.7205 232.96 15.8653 233.166 14.8556H239.595ZM249.092 4.19202H255.522V24.561H249.092V4.19202ZM240.253 1.37931H264.362V7.06656H240.253V1.37931ZM267.123 24.561V1.37931H273.522V22.3974L270.647 19.5229H279.673C280.723 19.5229 281.537 19.255 282.114 18.7192C282.712 18.1835 283.011 17.4623 283.011 16.5556C283.011 15.6283 282.712 14.9071 282.114 14.392C281.537 13.8768 280.723 13.6193 279.673 13.6193H270.091V8.55019H280.074C282.032 8.55019 283.711 8.89019 285.113 9.57019C286.534 10.2296 287.616 11.1568 288.358 12.352C289.12 13.5471 289.502 14.9483 289.502 16.5556C289.502 18.1629 289.12 19.5744 288.358 20.7901C287.616 21.9853 286.534 22.9126 285.113 23.5719C283.711 24.2313 282.032 24.561 280.074 24.561H267.123ZM291.418 1.37931H297.816V24.561H291.418V1.37931Z" fill="#FF7CCE"/>
</svg>
