<svg width="296" height="40" viewBox="0 0 296 40" fill="none" xmlns="http://www.w3.org/2000/svg">
<path d="M5.01128 13.8363H27.3162V21.0116H5.01128V13.8363ZM28.0952 1.24877V8.42405H5.29829L9.35745 4.36489V32H0.870115V1.24877H28.0952ZM45.1032 32.656C42.2604 32.656 39.7183 32.1367 37.4769 31.098C35.2628 30.0593 33.5134 28.6105 32.2287 26.7518C30.944 24.8657 30.3016 22.679 30.3016 20.1915C30.3016 17.7588 30.9166 15.6267 32.1467 13.7953C33.3767 11.9365 35.0578 10.4878 37.1899 9.4491C39.3493 8.41039 41.7821 7.89104 44.4882 7.89104C47.3036 7.89104 49.6954 8.50606 51.6635 9.73611C53.6589 10.9388 55.1896 12.6472 56.2556 14.8613C57.349 17.0754 57.8957 19.6858 57.8957 22.6926H37.0669V17.6494H53.1805L50.4334 19.4125C50.3241 18.2098 50.0234 17.1984 49.5314 16.3784C49.0394 15.531 48.3833 14.8886 47.5633 14.4513C46.7706 14.0139 45.8139 13.7953 44.6932 13.7953C43.4631 13.7953 42.4108 14.0413 41.5361 14.5333C40.6614 15.0253 39.978 15.7087 39.486 16.5834C38.994 17.4307 38.7479 18.4285 38.7479 19.5765C38.7479 21.0526 39.076 22.3099 39.732 23.3487C40.4153 24.36 41.3994 25.1391 42.6841 25.6857C43.9962 26.2324 45.5952 26.5058 47.4813 26.5058C49.2034 26.5058 50.9118 26.2871 52.6065 25.8498C54.3286 25.3851 55.8866 24.7427 57.2807 23.9227V29.2529C55.668 30.3463 53.8229 31.1936 51.7455 31.795C49.6954 32.369 47.4813 32.656 45.1032 32.656ZM61.4782 0.428735H69.8836V15.3943L68.7765 17.5264V23.4307L69.8836 25.4807V32H61.4782V0.428735ZM67.1775 20.3145C67.5601 17.7724 68.3118 15.5857 69.4325 13.7543C70.5533 11.8955 71.9883 10.4605 73.7377 9.4491C75.5145 8.41039 77.4962 7.89104 79.683 7.89104C81.979 7.89104 83.9881 8.41039 85.7102 9.4491C87.4596 10.4878 88.8127 11.9365 89.7694 13.7953C90.7534 15.654 91.2454 17.8271 91.2454 20.3145C91.2454 22.7473 90.7534 24.9067 89.7694 26.7928C88.8127 28.6515 87.4596 30.1003 85.7102 31.139C83.9881 32.1503 81.979 32.656 79.683 32.656C77.4689 32.656 75.4871 32.1503 73.7377 31.139C71.9883 30.1003 70.5533 28.6515 69.4325 26.7928C68.3118 24.9341 67.5601 22.7746 67.1775 20.3145ZM82.7991 20.3145C82.7991 19.1392 82.5531 18.1004 82.0611 17.1984C81.5964 16.2964 80.9403 15.5857 80.093 15.0663C79.2456 14.547 78.2616 14.2873 77.1409 14.2873C76.0201 14.2873 74.9541 14.547 73.9427 15.0663C72.9314 15.5857 72.043 16.2964 71.2776 17.1984C70.5123 18.1004 69.9246 19.1392 69.5146 20.3145C69.9246 21.4626 70.5123 22.4876 71.2776 23.3897C72.043 24.2917 72.9314 25.0024 73.9427 25.5217C74.9541 26.0138 76.0201 26.2598 77.1409 26.2598C78.2616 26.2598 79.2456 26.0138 80.093 25.5217C80.9403 25.0024 81.5964 24.2917 82.0611 23.3897C82.5531 22.4876 82.7991 21.4626 82.7991 20.3145ZM140.024 1.24877V32H131.946V4.28289L133.75 4.4879L121.86 32H113.25L101.318 4.5699L103.163 4.36489V32H95.0858V1.24877H108.206L119.236 27.6538H115.956L126.903 1.24877H140.024ZM152.912 39.4213C151.189 39.4213 149.659 39.2026 148.319 38.7653C146.98 38.3553 145.682 37.7129 144.424 36.8382V31.016C145.709 31.836 146.912 32.4237 148.032 32.779C149.153 33.1344 150.383 33.3121 151.723 33.3121C152.843 33.3121 153.841 33.066 154.716 32.574C155.59 32.082 156.301 31.18 156.848 29.8679L165.827 8.58806H174.724L163.49 32.451C162.697 34.1731 161.727 35.5398 160.579 36.5512C159.458 37.5899 158.242 38.3279 156.93 38.7653C155.618 39.2026 154.278 39.4213 152.912 39.4213ZM153.199 29.8269L143.235 8.58806H152.461L161.276 29.8269H153.199ZM186.137 1.24877V28.2278L182.324 24.4557H205.326V32H177.65V1.24877H186.137ZM221.607 32.656C218.6 32.656 215.976 32.1503 213.735 31.139C211.494 30.1003 209.744 28.6515 208.487 26.7928C207.229 24.9067 206.601 22.7473 206.601 20.3145C206.601 17.8271 207.229 15.654 208.487 13.7953C209.744 11.9365 211.494 10.4878 213.735 9.4491C215.976 8.41039 218.6 7.89104 221.607 7.89104C224.587 7.89104 227.197 8.41039 229.439 9.4491C231.707 10.4878 233.47 11.9365 234.728 13.7953C235.985 15.654 236.614 17.8271 236.614 20.3145C236.614 22.7473 235.985 24.9067 234.728 26.7928C233.47 28.6515 231.707 30.1003 229.439 31.139C227.197 32.1503 224.587 32.656 221.607 32.656ZM221.607 26.4648C222.974 26.4648 224.136 26.2188 225.092 25.7267C226.076 25.2347 226.828 24.524 227.347 23.5947C227.867 22.6653 228.127 21.5719 228.127 20.3145C228.127 19.0025 227.867 17.8954 227.347 16.9934C226.828 16.064 226.076 15.3533 225.092 14.8613C224.136 14.3693 222.974 14.1233 221.607 14.1233C220.241 14.1233 219.065 14.3693 218.081 14.8613C217.097 15.3533 216.345 16.064 215.826 16.9934C215.307 17.8954 215.047 18.9888 215.047 20.2735C215.047 21.5582 215.307 22.6653 215.826 23.5947C216.345 24.524 217.097 25.2347 218.081 25.7267C219.065 26.2188 220.241 26.4648 221.607 26.4648ZM253.745 28.0228L250.875 27.9818L258.993 8.58806H267.931L256.984 32H247.431L236.483 8.58806H245.75L253.745 28.0228ZM282.584 32.656C279.742 32.656 277.199 32.1367 274.958 31.098C272.744 30.0593 270.995 28.6105 269.71 26.7518C268.425 24.8657 267.783 22.679 267.783 20.1915C267.783 17.7588 268.398 15.6267 269.628 13.7953C270.858 11.9365 272.539 10.4878 274.671 9.4491C276.83 8.41039 279.263 7.89104 281.969 7.89104C284.785 7.89104 287.177 8.50606 289.145 9.73611C291.14 10.9388 292.671 12.6472 293.737 14.8613C294.83 17.0754 295.377 19.6858 295.377 22.6926H274.548V17.6494H290.662L287.915 19.4125C287.805 18.2098 287.505 17.1984 287.013 16.3784C286.521 15.531 285.865 14.8886 285.044 14.4513C284.252 14.0139 283.295 13.7953 282.174 13.7953C280.944 13.7953 279.892 14.0413 279.017 14.5333C278.143 15.0253 277.459 15.7087 276.967 16.5834C276.475 17.4307 276.229 18.4285 276.229 19.5765C276.229 21.0526 276.557 22.3099 277.213 23.3487C277.897 24.36 278.881 25.1391 280.165 25.6857C281.477 26.2324 283.076 26.5058 284.962 26.5058C286.685 26.5058 288.393 26.2871 290.088 25.8498C291.81 25.3851 293.368 24.7427 294.762 23.9227V29.2529C293.149 30.3463 291.304 31.1936 289.227 31.795C287.177 32.369 284.962 32.656 282.584 32.656Z" fill="#FF7CCE"/>
</svg>
