<svg width="297" height="30" viewBox="0 0 297 30" fill="none" xmlns="http://www.w3.org/2000/svg">
<path d="M21.0148 1.46797V8.12069H4.61677L7.96111 4.74039V28.4385H0.517247V1.46797H21.0148ZM25.0823 23.2601V17.2547H43.674V23.2601H25.0823ZM39.4306 1.46797L51.6932 28.4385H43.7459L33.4612 4.63251H35.6188L25.2981 28.4385H17.3508L29.6134 1.46797H39.4306ZM82.5874 17.1468C82.3237 19.5202 81.5086 21.6059 80.1421 23.404C78.7756 25.178 76.9775 26.5565 74.748 27.5395C72.5424 28.5224 70.0011 29.0138 67.1243 29.0138C63.9837 29.0138 61.2387 28.4265 58.8893 27.2518C56.5399 26.0771 54.7059 24.4349 53.3873 22.3252C52.0927 20.2155 51.4454 17.7582 51.4454 14.9532C51.4454 12.1483 52.0927 9.69098 53.3873 7.58128C54.7059 5.47159 56.5399 3.82938 58.8893 2.65467C61.2387 1.47995 63.9837 0.892596 67.1243 0.892596C70.0011 0.892596 72.5424 1.38406 74.748 2.36698C76.9775 3.34991 78.7756 4.74039 80.1421 6.53842C81.5086 8.31248 82.3237 10.3862 82.5874 12.7596H75.1076C74.8678 11.6089 74.4003 10.6379 73.7051 9.84681C73.0099 9.0317 72.0989 8.40838 70.9721 7.97685C69.8693 7.54532 68.5867 7.32956 67.1243 7.32956C65.4461 7.32956 63.9957 7.64122 62.7731 8.26453C61.5504 8.86388 60.6154 9.73892 59.9681 10.8897C59.3208 12.0164 58.9972 13.371 58.9972 14.9532C58.9972 16.5355 59.3208 17.902 59.9681 19.0527C60.6154 20.1795 61.5504 21.0546 62.7731 21.6779C63.9957 22.2772 65.4461 22.5769 67.1243 22.5769C68.5867 22.5769 69.8693 22.3731 70.9721 21.9656C72.0989 21.558 73.0099 20.9467 73.7051 20.1316C74.4003 19.3165 74.8678 18.3215 75.1076 17.1468H82.5874ZM90.7086 28.4385L95.5633 19.9877H95.6712L106.208 1.46797H114.299L98.7998 28.4385H90.7086ZM95.4554 24.8064L81.9702 1.46797H90.2051L100.742 19.8079L95.4554 24.8064ZM156.564 21.8217L153.22 25.202V1.46797H160.664V28.4385H116.828V1.46797H124.271V25.202L120.927 21.8217H138.044L135.024 25.202V1.46797H142.468V25.202L139.339 21.8217H156.564ZM165.712 1.46797H173.155V28.4385H165.712V1.46797ZM186.928 1.46797H194.408V28.4385H186.928V1.46797ZM169.883 11.4291H190.021V18.0458H169.883V11.4291ZM199.46 28.4385V1.46797H206.796V24.5188L204.746 24.0513L220.029 1.46797H229.775V28.4385H222.403V4.95615L224.489 5.42364L208.918 28.4385H199.46ZM234.824 28.4385V1.46797H242.231V22.505L240.254 20.9587L255.537 1.46797H263.412L241.548 28.4385H234.824ZM247.697 15.5646L253.163 11.0335L263.772 28.4385H255.321L247.697 15.5646ZM266.114 28.4385V1.46797H273.45V24.5188L271.4 24.0513L286.683 1.46797H296.428V28.4385H289.056V4.95615L291.142 5.42364L275.571 28.4385H266.114Z" fill="#FF7CCE"/>
</svg>
