<svg width="296" height="40" viewBox="0 0 296 40" fill="none" xmlns="http://www.w3.org/2000/svg">
<path d="M28.8651 1.6581V10.8691H6.16121L10.7916 6.18892V39H0.485243V1.6581H28.8651ZM52.2139 39.7966C47.7992 39.7966 43.9157 38.9834 40.5632 37.357C37.2439 35.7305 34.6549 33.4568 32.7961 30.5358C30.9705 27.6149 30.0577 24.2126 30.0577 20.3291C30.0577 16.4455 30.9705 13.0432 32.7961 10.1223C34.6549 7.2013 37.2439 4.92759 40.5632 3.30115C43.9157 1.6747 47.7992 0.861477 52.2139 0.861477C56.6617 0.861477 60.5453 1.6747 63.8646 3.30115C67.1838 4.92759 69.7729 7.2013 71.6317 10.1223C73.4905 13.0432 74.4199 16.4455 74.4199 20.3291C74.4199 24.2126 73.4905 27.6149 71.6317 30.5358C69.7729 33.4568 67.1838 35.7305 63.8646 37.357C60.5453 38.9834 56.6617 39.7966 52.2139 39.7966ZM52.2139 30.5856C54.637 30.5856 56.7281 30.1707 58.4873 29.3409C60.2465 28.5111 61.5908 27.3327 62.5202 25.8059C63.4828 24.279 63.9641 22.4534 63.9641 20.3291C63.9641 18.2047 63.4828 16.3791 62.5202 14.8522C61.5908 13.3254 60.2465 12.147 58.4873 11.3172C56.7281 10.4874 54.637 10.0725 52.2139 10.0725C49.824 10.0725 47.7495 10.4874 45.9902 11.3172C44.231 12.147 42.8701 13.3254 41.9075 14.8522C40.9449 16.3791 40.4636 18.2047 40.4636 20.3291C40.4636 22.4534 40.9449 24.279 41.9075 25.8059C42.8701 27.3327 44.231 28.5111 45.9902 29.3409C47.7495 30.1707 49.824 30.5856 52.2139 30.5856ZM100.701 1.6581C103.821 1.6581 106.51 2.18919 108.767 3.25136C111.057 4.31353 112.8 5.8238 113.994 7.78217C115.189 9.70736 115.787 11.9645 115.787 14.5535C115.787 17.1094 115.189 19.3665 113.994 21.3248C112.8 23.25 111.057 24.7437 108.767 25.8059C106.51 26.868 103.821 27.3991 100.701 27.3991H84.5193V19.1341H100.054C101.713 19.1341 103.008 18.7358 103.937 17.9392C104.866 17.1094 105.331 15.9808 105.331 14.5535C105.331 13.093 104.866 11.9645 103.937 11.1678C103.008 10.338 101.713 9.92311 100.054 9.92311H85.4155L90.0459 5.14335V39H79.7395V1.6581H100.701ZM120.29 1.6581H130.597V39H120.29V1.6581ZM149.666 1.6581H160.022V39H149.666V1.6581ZM126.066 15.4497H153.948V24.6109H126.066V15.4497ZM195.695 18.2379V25.5569H180.111L180.061 25.3578C177.207 25.3578 174.701 24.8765 172.543 23.9139C170.419 22.9513 168.759 21.5904 167.564 19.8312C166.402 18.0719 165.822 16.014 165.822 13.6573C165.822 11.2342 166.402 9.14308 167.564 7.38386C168.759 5.59145 170.419 4.19735 172.543 3.20157C174.701 2.17259 177.207 1.6581 180.061 1.6581H202.865V39H192.509V4.39651L197.139 9.0269H181.555C179.862 9.0269 178.534 9.44181 177.572 10.2716C176.642 11.0683 176.178 12.1968 176.178 13.6573C176.178 15.0846 176.642 16.2131 177.572 17.043C178.534 17.8396 179.862 18.2379 181.555 18.2379H195.695ZM189.521 21.524L176.775 39H164.826L177.97 21.524H189.521ZM209.804 39V1.6581H220.061V30.7848L217.322 28.6438L238.483 1.6581H249.386L219.115 39H209.804ZM227.629 21.1755L235.197 14.902L249.884 39H238.184L227.629 21.1755ZM253.126 39V1.6581H263.283V33.573L260.446 32.9257L281.606 1.6581H295.099V39H284.892V6.48765L287.78 7.13491L266.221 39H253.126Z" fill="#FF7CCE"/>
</svg>
