<svg width="295" height="26" viewBox="0 0 295 26" fill="none" xmlns="http://www.w3.org/2000/svg">
<path d="M0.290303 25.2573V0.718363H6.9649V21.691L5.09994 21.2657L19.0053 0.718363H27.8721V25.2573H21.1648V3.89207L23.0625 4.31741L8.8953 25.2573H0.290303ZM40.1546 3.69576H46.9601V25.2573H40.1546V3.69576ZM30.7971 0.718363H56.3176V6.73859H30.7971V0.718363ZM95.1009 0.718363V25.2573H88.6554V3.13954L90.095 3.30313L80.6066 25.2573H73.7357L64.2146 3.36857L65.6869 3.20498V25.2573H59.2413V0.718363H69.7113L78.5126 21.7892H75.8951L84.631 0.718363H95.1009ZM113.172 25.7808C110.271 25.7808 107.719 25.2464 105.516 24.1776C103.335 23.1088 101.634 21.6147 100.412 19.6952C99.2124 17.7757 98.6125 15.5399 98.6125 12.9878C98.6125 10.4358 99.2124 8.20002 100.412 6.28053C101.634 4.36104 103.335 2.86689 105.516 1.79808C107.719 0.72927 110.271 0.194866 113.172 0.194866C116.095 0.194866 118.647 0.72927 120.828 1.79808C123.01 2.86689 124.711 4.36104 125.933 6.28053C127.154 8.20002 127.765 10.4358 127.765 12.9878C127.765 15.5399 127.154 17.7757 125.933 19.6952C124.711 21.6147 123.01 23.1088 120.828 24.1776C118.647 25.2464 116.095 25.7808 113.172 25.7808ZM113.172 19.7279C114.765 19.7279 116.139 19.4552 117.295 18.9099C118.451 18.3646 119.334 17.5903 119.945 16.5869C120.578 15.5835 120.894 14.3838 120.894 12.9878C120.894 11.5918 120.578 10.3922 119.945 9.3888C119.334 8.38543 118.451 7.61108 117.295 7.06577C116.139 6.52046 114.765 6.24781 113.172 6.24781C111.602 6.24781 110.239 6.52046 109.083 7.06577C107.926 7.61108 107.032 8.38543 106.4 9.3888C105.767 10.3922 105.451 11.5918 105.451 12.9878C105.451 14.3838 105.767 15.5835 106.4 16.5869C107.032 17.5903 107.926 18.3646 109.083 18.9099C110.239 19.4552 111.602 19.7279 113.172 19.7279ZM167.415 19.2371L164.372 22.3126V0.718363H171.145V25.2573H131.261V0.718363H138.033V22.3126L134.991 19.2371H150.565L147.816 22.3126V0.718363H154.589V22.3126L151.742 19.2371H167.415ZM175.737 0.718363H182.51V25.2573H175.737V0.718363ZM195.041 0.718363H201.847V25.2573H195.041V0.718363ZM179.533 9.78142H197.855V15.8016H179.533V9.78142ZM206.443 25.2573V0.718363H213.118V21.691L211.253 21.2657L225.158 0.718363H234.025V25.2573H227.318V3.89207L229.215 4.31741L215.048 25.2573H206.443ZM238.619 25.2573V0.718363H245.359V19.8588L243.559 18.4519L257.464 0.718363H264.63L244.737 25.2573H238.619ZM250.332 13.5441L255.305 9.42151L264.957 25.2573H257.268L250.332 13.5441ZM267.088 25.2573V0.718363H273.762V21.691L271.897 21.2657L285.803 0.718363H294.669V25.2573H287.962V3.89207L289.86 4.31741L275.693 25.2573H267.088Z" fill="#FF7CCE"/>
</svg>
