<svg width="295" height="27" viewBox="0 0 295 27" fill="none" xmlns="http://www.w3.org/2000/svg">
<path d="M6.5356 1.09453H31.2033V26.2314H24.232V4.11096L27.3825 7.26145H10.4234L13.3393 4.94885C13.5181 6.42355 13.641 7.84239 13.708 9.20537C13.775 10.546 13.8085 11.8196 13.8085 13.0262C13.8085 16.2437 13.5181 18.8691 12.9371 20.9024C12.3562 22.9134 11.4401 24.3881 10.1888 25.3265C8.93757 26.265 7.31764 26.7342 5.32903 26.7342C4.45761 26.7342 3.59737 26.6448 2.7483 26.4661C1.92158 26.2873 1.16188 26.0192 0.469222 25.6617V19.8969C1.45236 20.2768 2.35728 20.4667 3.18401 20.4667C4.63636 20.4667 5.67536 19.8076 6.30099 18.4893C6.94896 17.171 7.27295 15.0148 7.27295 12.0207C7.27295 10.5684 7.20592 8.93725 7.07185 7.12739C6.96013 5.31753 6.78138 3.30658 6.5356 1.09453ZM49.0337 26.7677C46.3972 26.7677 44.0287 26.3208 41.9284 25.4271C39.8504 24.5333 38.1634 23.282 36.8675 21.6733C35.5715 20.0645 34.7671 18.1988 34.4543 16.0761H41.3586C41.5597 17.104 41.9954 17.9865 42.6657 18.7239C43.336 19.4612 44.2075 20.031 45.28 20.4332C46.3525 20.813 47.5814 21.003 48.9667 21.003C50.6425 21.003 52.0725 20.7125 53.2567 20.1316C54.441 19.5506 55.3459 18.7127 55.9715 17.6179C56.6195 16.523 56.9435 15.2047 56.9435 13.663C56.9435 12.1213 56.6195 10.803 55.9715 9.70811C55.3459 8.61326 54.441 7.77536 53.2567 7.19442C52.0725 6.61348 50.6425 6.32301 48.9667 6.32301C47.5814 6.32301 46.3525 6.5241 45.28 6.92629C44.2298 7.30614 43.3696 7.86474 42.6992 8.60209C42.0289 9.31709 41.582 10.1997 41.3586 11.2498H34.4543C34.7671 9.10483 35.5715 7.23911 36.8675 5.65269C38.1634 4.04393 39.8504 2.79267 41.9284 1.89891C44.0287 1.00515 46.3972 0.558274 49.0337 0.558274C51.9831 0.558274 54.5639 1.1057 56.7759 2.20055C58.988 3.2954 60.7084 4.82596 61.9374 6.79223C63.1886 8.75849 63.8143 11.0487 63.8143 13.663C63.8143 16.2772 63.1886 18.5675 61.9374 20.5337C60.7084 22.5 58.988 24.0306 56.7759 25.1254C54.5639 26.2203 51.9831 26.7677 49.0337 26.7677ZM60.0605 15.9756H44.8107V11.3504H60.0605V15.9756ZM74.2102 4.14447H81.1815V26.2314H74.2102V4.14447ZM64.6247 1.09453H90.767V7.26145H64.6247V1.09453ZM93.762 26.2314V1.09453H100.599V22.5782L98.6888 22.1425L112.933 1.09453H122.016V26.2314H115.145V4.34557L117.089 4.78128L102.577 26.2314H93.762ZM163.757 20.0645L160.64 23.215V1.09453H167.577V26.2314H126.721V1.09453H133.659V23.215L130.542 20.0645H146.496L143.681 23.215V1.09453H150.618V23.215L147.702 20.0645H163.757ZM172.282 1.09453H179.22V26.2314H172.282V1.09453ZM192.057 1.09453H199.028V26.2314H192.057V1.09453ZM176.17 10.3784H194.939V16.5454H176.17V10.3784ZM203.736 26.2314V1.09453H210.573V22.5782L208.663 22.1425L222.907 1.09453H231.99V26.2314H225.119V4.34557L227.063 4.78128L212.551 26.2314H203.736ZM236.695 26.2314V1.09453H243.6V20.7013L241.756 19.2601L256.001 1.09453H263.341L242.963 26.2314H236.695ZM248.694 14.2328L253.789 10.0098L263.676 26.2314H255.8L248.694 14.2328ZM265.858 26.2314V1.09453H272.695V22.5782L270.785 22.1425L285.029 1.09453H294.112V26.2314H287.241V4.34557L289.185 4.78128L274.673 26.2314H265.858Z" fill="#FF7CCE"/>
</svg>
