<svg width="274" height="44" viewBox="0 0 274 44" fill="none" xmlns="http://www.w3.org/2000/svg">
<path d="M51.9844 0.84261V36.21H42.6946V4.33219L44.7695 4.56797L31.0941 36.21H21.1913L7.46874 4.66229L9.59078 4.4265V36.21H0.300952V0.84261H15.391L28.0761 31.2114H24.3036L36.8944 0.84261H51.9844ZM88.8291 14.9896V22.063H62.9402V14.9896H88.8291ZM69.5893 18.5263L67.2786 32.7204L63.3175 28.2877H90.3853V36.21H57.5172L60.2051 18.5263L57.5172 0.84261H90.1495V8.7649H63.3175L67.2786 4.33219L69.5893 18.5263ZM93.4983 43.3306V27.5803H101.138L104.25 27.6746H128.771L131.224 27.5803H141.504V43.3306H132.355V36.21H102.647V43.3306H93.4983ZM100.855 0.84261H135.42V33.4749H125.612V4.94522L130.045 9.37793H106.042L110.097 6.12414C110.349 7.57027 110.49 8.96924 110.522 10.3211C110.585 11.6729 110.616 12.9618 110.616 14.1879C110.616 17.8661 110.286 20.9627 109.626 23.4777C108.997 25.9927 108.038 27.8947 106.749 29.1836C105.492 30.4726 103.904 31.1171 101.986 31.1171L97.8839 27.7218C99.1414 26.2442 100.069 24.2322 100.666 21.6858C101.263 19.1079 101.562 15.9327 101.562 12.1602C101.562 10.4311 101.499 8.62343 101.373 6.73717C101.248 4.85091 101.075 2.88606 100.855 0.84261ZM146.191 36.21V0.84261H155.811V31.0699L153.123 30.4569L173.165 0.84261H185.944V36.21H176.277V5.41679L179.012 6.02982L158.593 36.21H146.191ZM192.565 36.21V0.84261H202.279V28.4291L199.685 26.4014L219.727 0.84261H230.054L201.383 36.21H192.565ZM209.447 19.3279L216.615 13.3862L230.526 36.21H219.444L209.447 19.3279ZM233.596 36.21V0.84261H243.216V31.0699L240.529 30.4569L260.57 0.84261H273.349V36.21H263.682V5.41679L266.417 6.02982L245.999 36.21H233.596Z" fill="#FF7CCE"/>
</svg>
