<svg width="276" height="53" viewBox="0 0 276 53" fill="none" xmlns="http://www.w3.org/2000/svg">
<path d="M78.2914 0.0681187V53H64.388V5.29073L67.4933 5.64361L47.0263 53H32.2054L11.6678 5.78476L14.8437 5.43188V53H0.940309V0.0681187H23.5246L42.5095 45.519H36.8634L55.7072 0.0681187H78.2914ZM100.687 53L110.215 36.4147H110.427L131.105 0.0681187H146.985L116.567 53H100.687ZM110.003 45.8718L83.5372 0.0681187H99.6991L120.378 36.0618L110.003 45.8718ZM183.006 29.9217V21.0291L208.978 53H190.981L173.831 30.8392H181.03L163.809 53H146.024L172.137 21.0997V29.8511L147.577 0.0681187H165.856L181.383 20.1117H174.184L189.499 0.0681187H207.496L183.006 29.9217ZM223.454 42.8371V31.0509H259.942V42.8371H223.454ZM251.614 0.0681187L275.68 53H260.083L239.899 6.27879H244.133L223.878 53H208.281L232.347 0.0681187H251.614Z" fill="#FF7CCE"/>
</svg>
