<svg width="297" height="30" viewBox="0 0 297 30" fill="none" xmlns="http://www.w3.org/2000/svg">
<path d="M29.9574 1.2592V29H22.3009V4.5881L25.7408 8.06494H4.80574L8.2456 4.5881V29H0.589141V1.2592H29.9574ZM56.2037 1.2592V8.10193H39.3373L42.7771 4.62509V29H35.1207V1.2592H56.2037ZM66.049 29L71.0424 20.3079H71.1533L81.9908 1.2592H90.313L74.3713 29H66.049ZM70.9314 25.2642L57.061 1.2592H65.5312L76.3686 20.1229L70.9314 25.2642ZM122.282 1.2592V29H114.626V4.5881L118.066 8.06494H97.1306L100.57 4.5881V29H92.914V1.2592H122.282ZM158.256 17.3859C157.985 19.827 157.147 21.9723 155.741 23.8217C154.336 25.6464 152.486 27.0643 150.193 28.0753C147.924 29.0863 145.311 29.5918 142.352 29.5918C139.121 29.5918 136.298 28.9877 133.881 27.7794C131.465 26.5711 129.578 24.882 128.222 22.7121C126.891 20.5421 126.225 18.0146 126.225 15.1296C126.225 12.2446 126.891 9.71706 128.222 7.54712C129.578 5.37717 131.465 3.68806 133.881 2.4798C136.298 1.27153 139.121 0.667399 142.352 0.667399C145.311 0.667399 147.924 1.1729 150.193 2.1839C152.486 3.19489 154.336 4.62509 155.741 6.47447C157.147 8.2992 157.985 10.4322 158.256 12.8733H150.563C150.316 11.6897 149.835 10.6911 149.12 9.87734C148.405 9.03896 147.468 8.39784 146.309 7.95398C145.175 7.51013 143.856 7.2882 142.352 7.2882C140.625 7.2882 139.134 7.60876 137.876 8.24988C136.618 8.86635 135.657 9.76638 134.991 10.95C134.325 12.1089 133.992 13.5021 133.992 15.1296C133.992 16.7571 134.325 18.1626 134.991 19.3462C135.657 20.5052 136.618 21.4052 137.876 22.0463C139.134 22.6628 140.625 22.971 142.352 22.971C143.856 22.971 145.175 22.7614 146.309 22.3422C147.468 21.923 148.405 21.2942 149.12 20.4558C149.835 19.6174 150.316 18.5941 150.563 17.3859H158.256ZM161.977 1.2592H169.633V29H161.977V1.2592ZM183.8 1.2592H191.493V29H183.8V1.2592ZM166.268 11.5048H186.981V18.3105H166.268V11.5048ZM196.689 29V1.2592H204.235V24.9683L202.126 24.4875L217.846 1.2592H227.87V29H220.287V4.84701L222.433 5.32785L206.417 29H196.689ZM233.063 29V1.2592H240.682V22.897L238.648 21.3066L254.368 1.2592H262.468L239.979 29H233.063ZM246.304 15.7584L251.927 11.0979L262.838 29H254.146L246.304 15.7584ZM265.246 29V1.2592H272.792V24.9683L270.684 24.4875L286.403 1.2592H296.427V29H288.845V4.84701L290.99 5.32785L274.974 29H265.246Z" fill="#FF7CCE"/>
</svg>
