<svg width="295" height="24" viewBox="0 0 295 24" fill="none" xmlns="http://www.w3.org/2000/svg">
<path d="M23.5409 0.784657V22.9556H17.4217V3.44517L20.1709 6.22392H3.43926L6.18846 3.44517V22.9556H0.0692848V0.784657H23.5409ZM39.8467 23.4285C37.2256 23.4285 34.9198 22.9457 32.9293 21.98C30.9586 21.0144 29.4214 19.6644 28.3178 17.9302C27.2339 16.1959 26.6919 14.1759 26.6919 11.8701C26.6919 9.56434 27.2339 7.54432 28.3178 5.81006C29.4214 4.07581 30.9586 2.72584 32.9293 1.76018C34.9198 0.794511 37.2256 0.311678 39.8467 0.311678C42.4875 0.311678 44.7932 0.794511 46.764 1.76018C48.7347 2.72584 50.2719 4.07581 51.3755 5.81006C52.4792 7.54432 53.031 9.56434 53.031 11.8701C53.031 14.1759 52.4792 16.1959 51.3755 17.9302C50.2719 19.6644 48.7347 21.0144 46.764 21.98C44.7932 22.9457 42.4875 23.4285 39.8467 23.4285ZM39.8467 17.9597C41.2853 17.9597 42.5269 17.7134 43.5714 17.2207C44.6159 16.728 45.414 16.0284 45.9658 15.1218C46.5374 14.2153 46.8231 13.1314 46.8231 11.8701C46.8231 10.6088 46.5374 9.52492 45.9658 8.61838C45.414 7.71183 44.6159 7.01222 43.5714 6.51953C42.5269 6.02685 41.2853 5.7805 39.8467 5.7805C38.4277 5.7805 37.196 6.02685 36.1515 6.51953C35.107 7.01222 34.299 7.71183 33.7275 8.61838C33.156 9.52492 32.8702 10.6088 32.8702 11.8701C32.8702 13.1314 33.156 14.2153 33.7275 15.1218C34.299 16.0284 35.107 16.728 36.1515 17.2207C37.196 17.7134 38.4277 17.9597 39.8467 17.9597ZM59.0762 0.784657H80.8333V22.9556H74.6846V3.44517L77.4633 6.22392H62.5053L65.0772 4.1842C65.2348 5.48489 65.3432 6.73632 65.4023 7.93847C65.4615 9.12092 65.491 10.2442 65.491 11.3084C65.491 14.1463 65.2348 16.462 64.7224 18.2553C64.21 20.029 63.402 21.3297 62.2984 22.1574C61.1948 22.9851 59.766 23.399 58.012 23.399C57.2434 23.399 56.4847 23.3202 55.7358 23.1625C55.0066 23.0048 54.3366 22.7683 53.7257 22.453V17.3685C54.5928 17.7035 55.3909 17.871 56.1201 17.871C57.4011 17.871 58.3175 17.2897 58.8693 16.1269C59.4408 14.9642 59.7266 13.0624 59.7266 10.4216C59.7266 9.14063 59.6675 7.70198 59.5492 6.10567C59.4507 4.50937 59.293 2.7357 59.0762 0.784657ZM84.9423 22.9556V0.784657H90.9728V19.7334L89.2878 19.3491L101.851 0.784657H109.862V22.9556H103.802V3.65209L105.517 4.03639L92.7169 22.9556H84.9423ZM120.96 3.47473H127.108V22.9556H120.96V3.47473ZM112.505 0.784657H135.563V6.22392H112.505V0.784657ZM157.153 9.65302V14.0872H140.924V9.65302H157.153ZM145.092 11.8701L143.644 20.768L141.161 17.9893H158.129V22.9556H137.525L139.21 11.8701L137.525 0.784657H157.981V5.75094H141.161L143.644 2.97219L145.092 11.8701ZM174.77 13.289V9.56434L185.649 22.9556H178.11L170.927 13.6733H173.942L166.729 22.9556H159.28L170.218 9.5939V13.2595L159.93 0.784657H167.587L174.09 9.18004H171.075L177.49 0.784657H185.028L174.77 13.289ZM187.396 0.784657H193.515V22.9556H187.396V0.784657ZM204.837 0.784657H210.986V22.9556H204.837V0.784657ZM190.825 8.97311H207.38V14.4124H190.825V8.97311ZM215.139 22.9556V0.784657H221.169V19.7334L219.484 19.3491L232.048 0.784657H240.059V22.9556H233.999V3.65209L235.713 4.03639L222.913 22.9556H215.139ZM244.209 22.9556V0.784657H250.299V18.078L248.673 16.8068L261.236 0.784657H267.71L249.737 22.9556H244.209ZM254.792 12.3727L259.285 8.64794L268.006 22.9556H261.059L254.792 12.3727ZM269.931 22.9556V0.784657H275.961V19.7334L274.276 19.3491L286.84 0.784657H294.851V22.9556H288.791V3.65209L290.505 4.03639L277.705 22.9556H269.931Z" fill="#FF7CCE"/>
</svg>
