<svg width="295" height="27" viewBox="0 0 295 27" fill="none" xmlns="http://www.w3.org/2000/svg">
<path d="M15.3982 0.2729C17.6188 0.2729 19.5322 0.650866 21.1386 1.4068C22.7686 2.16273 24.0088 3.23757 24.8592 4.63132C25.7096 6.00145 26.1348 7.6078 26.1348 9.45039C26.1348 11.2693 25.7096 12.8757 24.8592 14.2695C24.0088 15.6396 22.7686 16.7026 21.1386 17.4585C19.5322 18.2145 17.6188 18.5924 15.3982 18.5924H3.8821V12.7103H14.9376C16.1187 12.7103 17.04 12.4269 17.7015 11.8599C18.3629 11.2693 18.6936 10.4662 18.6936 9.45039C18.6936 8.41098 18.3629 7.6078 17.7015 7.04085C17.04 6.45028 16.1187 6.155 14.9376 6.155H4.51991L7.8153 2.7533V26.8486H0.480402V0.2729H15.3982ZM49.5375 0.2729V6.82825H33.3795L36.6749 3.49742V26.8486H29.34V0.2729H49.5375ZM80.8324 0.2729V26.8486H73.4975V3.46199L76.7929 6.79281H56.7371L60.0325 3.46199V26.8486H52.6976V0.2729H80.8324ZM92.0507 26.8486L96.8343 18.5216H96.9406L107.323 0.2729H115.296L100.023 26.8486H92.0507ZM96.728 23.2698L83.4401 0.2729H91.5546L101.937 18.3444L96.728 23.2698ZM156.942 20.3287L153.647 23.6595V0.2729H160.982V26.8486H117.787V0.2729H125.122V23.6595L121.827 20.3287H138.694L135.717 23.6595V0.2729H143.052V23.6595L139.969 20.3287H156.942ZM165.956 0.2729H173.291V26.8486H165.956V0.2729ZM186.862 0.2729H194.232V26.8486H186.862V0.2729ZM170.066 10.0882H189.909V16.6081H170.066V10.0882ZM199.21 26.8486V0.2729H206.439V22.9863L204.419 22.5256L219.479 0.2729H229.081V26.8486H221.817V3.71003L223.872 4.17067L208.529 26.8486H199.21ZM234.056 26.8486V0.2729H241.356V21.002L239.407 19.4783L254.466 0.2729H262.226L240.682 26.8486H234.056ZM246.742 14.1632L252.128 9.69843L262.581 26.8486H254.254L246.742 14.1632ZM264.888 26.8486V0.2729H272.117V22.9863L270.097 22.5256L285.157 0.2729H294.759V26.8486H287.495V3.71003L289.55 4.17067L274.207 26.8486H264.888Z" fill="#FF7CCE"/>
</svg>
