<svg width="276" height="58" viewBox="0 0 276 58" fill="none" xmlns="http://www.w3.org/2000/svg">
<path d="M53.8132 28.5921C53.36 32.6715 51.959 36.2564 49.6102 39.3468C47.2615 42.396 44.1711 44.7653 40.3389 46.4548C36.548 48.1442 32.1802 48.9889 27.2355 48.9889C21.8375 48.9889 17.1195 47.9794 13.0813 45.9603C9.04315 43.9412 5.89091 41.1186 3.62459 37.4925C1.39948 33.8664 0.28692 29.6428 0.28692 24.8218C0.28692 20.0007 1.39948 15.7771 3.62459 12.151C5.89091 8.52487 9.04315 5.70228 13.0813 3.6832C17.1195 1.66411 21.8375 0.654571 27.2355 0.654571C32.1802 0.654571 36.548 1.49929 40.3389 3.18873C44.1711 4.87816 47.2615 7.2681 49.6102 10.3585C51.959 13.4078 53.36 16.9721 53.8132 21.0514H40.957C40.545 19.0735 39.7414 17.4047 38.5465 16.0449C37.3515 14.6439 35.7857 13.5726 33.849 12.8309C31.9536 12.0892 29.749 11.7183 27.2355 11.7183C24.3511 11.7183 21.8581 12.254 19.7566 13.3253C17.6552 14.3555 16.0481 15.8595 14.9356 17.8374C13.823 19.774 13.2667 22.1022 13.2667 24.8218C13.2667 27.5413 13.823 29.8901 14.9356 31.8679C16.0481 33.8046 17.6552 35.3086 19.7566 36.38C21.8581 37.4101 24.3511 37.9252 27.2355 37.9252C29.749 37.9252 31.9536 37.5749 33.849 36.8744C35.7857 36.1739 37.3515 35.1232 38.5465 33.7222C39.7414 32.3212 40.545 30.6112 40.957 28.5921H53.8132ZM67.7718 48L76.116 33.475H76.3014L94.4114 1.64351H108.318L81.6788 48H67.7718ZM75.9306 41.7573L52.7523 1.64351H66.9065L85.0164 33.1659L75.9306 41.7573ZM103.778 57.3331V36.689H113.791L117.871 36.8126H150.011L153.225 36.689H166.699V57.3331H154.709V48H115.769V57.3331H103.778ZM113.42 1.64351H158.726V44.4151H145.87V7.02086L151.68 12.8309H120.219L125.535 8.56608C125.865 10.4615 126.05 12.2952 126.091 14.067C126.174 15.8389 126.215 17.5283 126.215 19.1354C126.215 23.9564 125.782 28.0152 124.917 31.3117C124.093 34.6081 122.836 37.1011 121.146 38.7905C119.498 40.4799 117.417 41.3247 114.904 41.3247L109.526 36.8744C111.175 34.9378 112.39 32.3006 113.173 28.9629C113.956 25.5841 114.348 21.4223 114.348 16.4776C114.348 14.2113 114.265 11.8419 114.1 9.36959C113.935 6.89724 113.709 4.32188 113.42 1.64351ZM172.844 48V1.64351H185.638V43.6734L179.89 37.9252H197.938C200.039 37.9252 201.667 37.3895 202.821 36.3182C204.016 35.2468 204.613 33.8046 204.613 31.9916C204.613 30.1373 204.016 28.6951 202.821 27.665C201.667 26.6348 200.039 26.1197 197.938 26.1197H178.777V15.9831H198.741C202.656 15.9831 206.014 16.663 208.816 18.0228C211.659 19.3414 213.823 21.1956 215.306 23.5856C216.831 25.9755 217.593 28.7775 217.593 31.9916C217.593 35.2056 216.831 38.0282 215.306 40.4593C213.823 42.8493 211.659 44.7035 208.816 46.0221C206.014 47.3407 202.656 48 198.741 48H172.844ZM223.184 48V1.64351H235.793V41.2629L232.27 40.4593L258.538 1.64351H275.289V48H262.618V7.63895L266.203 8.44246L239.44 48H223.184Z" fill="#FF7CCE"/>
</svg>
