<svg width="297" height="29" viewBox="0 0 297 29" fill="none" xmlns="http://www.w3.org/2000/svg">
<path d="M9.26974 3.48983H15.5914V23.5186H9.26974V3.48983ZM0.577459 0.724106H24.2837V6.31634H0.577459V0.724106ZM46.4812 9.84189V14.4008H29.7957V9.84189H46.4812ZM34.081 12.1213L32.5918 21.2695L30.0388 18.4126H47.4842V23.5186H26.3005L28.0329 12.1213L26.3005 0.724106H47.3322V5.83006H30.0388L32.5918 2.97316L34.081 12.1213ZM64.5935 13.5802V9.75071L75.778 23.5186H68.0279L60.6425 13.9753H63.7425L56.3267 23.5186H48.6678L59.9131 9.7811V13.5498L49.3364 0.724106H57.2081L63.8945 9.3556H60.7944L67.3896 0.724106H75.1398L64.5935 13.5802ZM77.5747 0.724106H83.866V23.5186H77.5747V0.724106ZM95.5064 0.724106H101.828V23.5186H95.5064V0.724106ZM81.1003 9.14286H98.1201V14.7351H81.1003V9.14286ZM118.619 24.0048C115.924 24.0048 113.554 23.5084 111.507 22.5156C109.481 21.5228 107.901 20.1348 106.766 18.3518C105.652 16.5688 105.095 14.492 105.095 12.1213C105.095 9.75071 105.652 7.67388 106.766 5.89085C107.901 4.10782 109.481 2.71989 111.507 1.72706C113.554 0.734238 115.924 0.237826 118.619 0.237826C121.334 0.237826 123.705 0.734238 125.731 1.72706C127.757 2.71989 129.338 4.10782 130.472 5.89085C131.607 7.67388 132.174 9.75071 132.174 12.1213C132.174 14.492 131.607 16.5688 130.472 18.3518C129.338 20.1348 127.757 21.5228 125.731 22.5156C123.705 23.5084 121.334 24.0048 118.619 24.0048ZM118.619 18.3822C120.098 18.3822 121.375 18.1289 122.449 17.6224C123.523 17.1158 124.343 16.3966 124.91 15.4645C125.498 14.5325 125.792 13.4181 125.792 12.1213C125.792 10.8246 125.498 9.71019 124.91 8.77815C124.343 7.84611 123.523 7.12681 122.449 6.62027C121.375 6.11373 120.098 5.86046 118.619 5.86046C117.16 5.86046 115.894 6.11373 114.82 6.62027C113.746 7.12681 112.916 7.84611 112.328 8.77815C111.74 9.71019 111.447 10.8246 111.447 12.1213C111.447 13.4181 111.74 14.5325 112.328 15.4645C112.916 16.3966 113.746 17.1158 114.82 17.6224C115.894 18.1289 117.16 18.3822 118.619 18.3822ZM138.39 0.724106H160.759V23.5186H154.437V3.45944L157.294 6.31634H141.915L144.559 4.21926C144.721 5.55653 144.833 6.84315 144.894 8.07912C144.954 9.29482 144.985 10.4497 144.985 11.5439C144.985 14.4616 144.721 16.8423 144.195 18.6861C143.668 20.5097 142.837 21.847 141.702 22.698C140.568 23.5489 139.099 23.9744 137.295 23.9744C136.505 23.9744 135.725 23.8934 134.955 23.7313C134.206 23.5692 133.517 23.3261 132.889 23.0019V17.7744C133.78 18.1188 134.601 18.291 135.35 18.291C136.667 18.291 137.61 17.6933 138.177 16.4979C138.764 15.3024 139.058 13.3472 139.058 10.6321C139.058 9.31508 138.997 7.83597 138.876 6.19477C138.775 4.55357 138.612 2.73002 138.39 0.724106ZM177.505 24.0048C174.81 24.0048 172.439 23.5084 170.393 22.5156C168.367 21.5228 166.786 20.1348 165.652 18.3518C164.537 16.5688 163.98 14.492 163.98 12.1213C163.98 9.75071 164.537 7.67388 165.652 5.89085C166.786 4.10782 168.367 2.71989 170.393 1.72706C172.439 0.734238 174.81 0.237826 177.505 0.237826C180.22 0.237826 182.591 0.734238 184.617 1.72706C186.643 2.71989 188.223 4.10782 189.358 5.89085C190.493 7.67388 191.06 9.75071 191.06 12.1213C191.06 14.492 190.493 16.5688 189.358 18.3518C188.223 20.1348 186.643 21.5228 184.617 22.5156C182.591 23.5084 180.22 24.0048 177.505 24.0048ZM177.505 18.3822C178.984 18.3822 180.26 18.1289 181.334 17.6224C182.408 17.1158 183.229 16.3966 183.796 15.4645C184.384 14.5325 184.678 13.4181 184.678 12.1213C184.678 10.8246 184.384 9.71019 183.796 8.77815C183.229 7.84611 182.408 7.12681 181.334 6.62027C180.26 6.11373 178.984 5.86046 177.505 5.86046C176.046 5.86046 174.78 6.11373 173.706 6.62027C172.632 7.12681 171.801 7.84611 171.214 8.77815C170.626 9.71019 170.332 10.8246 170.332 12.1213C170.332 13.4181 170.626 14.5325 171.214 15.4645C171.801 16.3966 172.632 17.1158 173.706 17.6224C174.78 18.1289 176.046 18.3822 177.505 18.3822ZM190.458 23.5186L199.454 8.80854L204.043 12.638L197.6 23.5186H190.458ZM225.835 23.5186L219.422 12.638L224.011 8.80854L232.977 23.5186H225.835ZM214.832 17.7744L213.1 17.1665L226.017 0.724106H232.673L214.042 23.5186H209.423L190.792 0.724106H197.417L210.365 17.1665L208.602 17.7744V0.724106H214.832V17.7744ZM259.006 0.724106V19.993L256.757 17.9263H262.957V28.1078H257.031V22.3332L258.763 23.5186H235.118V0.724106H241.409V19.993L239.373 17.9263H254.934L252.715 19.993V0.724106H259.006ZM265.955 23.5186V0.724106H272.247V21.3911L269.42 18.5646H278.295C279.328 18.5646 280.128 18.3012 280.696 17.7744C281.283 17.2475 281.577 16.5384 281.577 15.6469C281.577 14.7351 281.283 14.0259 280.696 13.5194C280.128 13.0128 279.328 12.7596 278.295 12.7596H268.873V7.77519H278.69C280.615 7.77519 282.266 8.10951 283.644 8.77815C285.042 9.42652 286.106 10.3383 286.835 11.5135C287.585 12.6887 287.96 14.0665 287.96 15.6469C287.96 17.2273 287.585 18.6152 286.835 19.8107C286.106 20.9858 285.042 21.8976 283.644 22.546C282.266 23.1944 280.615 23.5186 278.69 23.5186H265.955ZM289.844 0.724106H296.135V23.5186H289.844V0.724106Z" fill="#FF7CCE"/>
</svg>
