<svg width="298" height="24" viewBox="0 0 298 24" fill="none" xmlns="http://www.w3.org/2000/svg">
<path d="M7.3649 23L11.3902 15.9929H11.4797L20.2162 0.636953H26.9251L14.0738 23H7.3649ZM11.3008 19.9884L0.11927 0.636953H6.94745L15.684 15.8438L11.3008 19.9884ZM29.0219 0.636953H35.1941V23H29.0219V0.636953ZM46.6141 0.636953H52.8162V23H46.6141V0.636953ZM32.4807 8.89637H49.1784V14.3828H32.4807V8.89637ZM57.0048 23V0.636953H63.0876V19.7499L61.388 19.3623L74.0604 0.636953H82.1409V23H76.0283V3.52924L77.7577 3.91687L64.8468 23H57.0048ZM101.474 12.057L101.981 10.8941C103.711 10.9339 105.132 11.2023 106.245 11.6992C107.378 12.1763 108.223 12.8521 108.78 13.7268C109.336 14.5816 109.615 15.5755 109.615 16.7085C109.615 17.9211 109.336 19.0045 108.78 19.9586C108.223 20.8929 107.388 21.6383 106.275 22.1949C105.182 22.7316 103.81 23 102.16 23H85.6414L87.3708 11.5203L85.6414 0.636953H101.564C103.631 0.636953 105.241 1.12397 106.394 2.09801C107.547 3.05216 108.124 4.38401 108.124 6.09354C108.124 7.02781 107.905 7.92234 107.468 8.7771C107.03 9.63187 106.325 10.3574 105.351 10.9538C104.397 11.5302 103.104 11.898 101.474 12.057ZM91.7539 21.5688L89.3686 18.6765H100.49C101.385 18.6765 102.081 18.4578 102.578 18.0205C103.075 17.5832 103.323 16.9769 103.323 16.2016C103.323 15.4264 103.055 14.8102 102.518 14.353C101.981 13.8759 101.186 13.6373 100.133 13.6373H90.9489V9.40327H99.2977C100.013 9.40327 100.61 9.19455 101.087 8.7771C101.584 8.33978 101.832 7.75337 101.832 7.01788C101.832 6.42153 101.624 5.93451 101.206 5.55682C100.789 5.15926 100.192 4.96048 99.417 4.96048H89.3984L91.7539 2.06819L93.2746 11.5203L91.7539 21.5688ZM131.763 9.58217V14.0548H115.394V9.58217H131.763ZM119.598 11.8185L118.137 20.7935L115.632 17.9907H132.747V23H111.965L113.664 11.8185L111.965 0.636953H132.598V5.64628H115.632L118.137 2.84344L119.598 11.8185ZM148.877 0.636953C150.745 0.636953 152.356 0.955005 153.707 1.59111C155.079 2.22721 156.122 3.13167 156.838 4.30449C157.554 5.45743 157.912 6.80915 157.912 8.35966C157.912 9.89028 157.554 11.242 156.838 12.4148C156.122 13.5678 155.079 14.4623 153.707 15.0984C152.356 15.7345 150.745 16.0525 148.877 16.0525H139.186V11.1029H148.489C149.483 11.1029 150.258 10.8643 150.815 10.3872C151.372 9.89029 151.65 9.21442 151.65 8.35966C151.65 7.48502 151.372 6.80915 150.815 6.33208C150.258 5.83512 149.483 5.58664 148.489 5.58664H139.723L142.496 2.72417V23H136.324V0.636953H148.877ZM185.446 13.6373C185.228 15.6053 184.552 17.3347 183.419 18.8256C182.286 20.2966 180.795 21.4396 178.946 22.2546C177.117 23.0696 175.01 23.4771 172.625 23.4771C170.021 23.4771 167.745 22.9901 165.797 22.016C163.849 21.042 162.328 19.6803 161.235 17.931C160.161 16.1818 159.625 14.1442 159.625 11.8185C159.625 9.49272 160.161 7.4552 161.235 5.70591C162.328 3.95662 163.849 2.59496 165.797 1.62093C167.745 0.646893 170.021 0.159875 172.625 0.159875C175.01 0.159875 177.117 0.56738 178.946 1.38239C180.795 2.1974 182.286 3.35034 183.419 4.84121C184.552 6.3122 185.228 8.03167 185.446 9.99962H179.244C179.046 9.04546 178.658 8.24039 178.082 7.58441C177.505 6.90855 176.75 6.39171 175.815 6.0339C174.901 5.67609 173.838 5.49719 172.625 5.49719C171.234 5.49719 170.031 5.75561 169.017 6.27244C168.003 6.7694 167.228 7.49495 166.691 8.44911C166.155 9.38339 165.886 10.5065 165.886 11.8185C165.886 13.1304 166.155 14.2635 166.691 15.2177C167.228 16.1519 168.003 16.8775 169.017 17.3943C170.031 17.8913 171.234 18.1398 172.625 18.1398C173.838 18.1398 174.901 17.9708 175.815 17.6329C176.75 17.2949 177.505 16.788 178.082 16.1122C178.658 15.4363 179.046 14.6114 179.244 13.6373H185.446ZM191.635 18.7063V13.7268H207.05V18.7063H191.635ZM203.532 0.636953L213.699 23H207.11L198.582 3.26088H200.371L191.813 23H185.224L195.392 0.636953H203.532ZM215.817 0.636953H221.99V23H215.817V0.636953ZM233.41 0.636953H239.612V23H233.41V0.636953ZM219.276 8.89637H235.974V14.3828H219.276V8.89637ZM250.807 3.35034H257.009V23H250.807V3.35034ZM242.28 0.636953H265.537V6.12335H242.28V0.636953ZM268.202 23V0.636953H274.374V20.9128L271.601 18.1398H280.307C281.321 18.1398 282.106 17.8813 282.663 17.3645C283.24 16.8477 283.528 16.1519 283.528 15.2773C283.528 14.3828 283.24 13.687 282.663 13.1901C282.106 12.6931 281.321 12.4446 280.307 12.4446H271.064V7.55459H280.695C282.584 7.55459 284.204 7.88258 285.555 8.53856C286.927 9.17467 287.971 10.0692 288.686 11.2221C289.422 12.3751 289.789 13.7268 289.789 15.2773C289.789 16.8278 289.422 18.1895 288.686 19.3623C287.971 20.5152 286.927 21.4097 285.555 22.0458C284.204 22.6819 282.584 23 280.695 23H268.202ZM291.638 0.636953H297.81V23H291.638V0.636953Z" fill="#FF7CCE"/>
</svg>
