<svg width="297" height="34" viewBox="0 0 297 34" fill="none" xmlns="http://www.w3.org/2000/svg">
<path d="M19.622 14.9061L20.2286 13.5146C22.2979 13.5622 23.9986 13.8833 25.3306 14.4779C26.6863 15.0488 27.6972 15.8575 28.3632 16.9041C29.0292 17.9268 29.3622 19.1161 29.3622 20.4719C29.3622 21.9228 29.0292 23.2191 28.3632 24.3608C27.6972 25.4787 26.6982 26.3707 25.3662 27.0367C24.058 27.6789 22.4168 28 20.4426 28H0.676879L2.74622 14.2639L0.676879 1.2413H19.7291C22.2028 1.2413 24.1294 1.82404 25.509 2.98954C26.8885 4.13124 27.5783 5.72487 27.5783 7.77042C27.5783 8.88834 27.3167 9.95869 26.7934 10.9815C26.2701 12.0042 25.4257 12.8724 24.2602 13.586C23.1185 14.2758 21.5724 14.7158 19.622 14.9061ZM7.99092 26.2874L5.13666 22.8267H18.4447C19.515 22.8267 20.3475 22.565 20.9421 22.0417C21.5368 21.5184 21.8341 20.793 21.8341 19.8654C21.8341 18.9377 21.513 18.2004 20.8708 17.6533C20.2286 17.0825 19.2771 16.797 18.0165 16.797H7.02761V11.7307H17.0175C17.8738 11.7307 18.5874 11.481 19.1582 10.9815C19.7529 10.4582 20.0502 9.75651 20.0502 8.87645C20.0502 8.16288 19.8004 7.58014 19.3009 7.12821C18.8014 6.6525 18.0879 6.41465 17.1602 6.41465H5.17234L7.99092 2.95386L9.81051 14.2639L7.99092 26.2874ZM72.4192 21.4352L69.1011 24.789V1.2413H76.4865V28H32.9947V1.2413H40.3801V24.789L37.062 21.4352H54.0449L51.0479 24.789V1.2413H58.4333V24.789L55.3293 21.4352H72.4192ZM95.5164 28.5709C92.7097 28.5709 90.1884 28.0951 87.9526 27.1437C85.7406 26.1923 83.9447 24.8603 82.5652 23.1478C81.1856 21.4352 80.3293 19.4491 79.9964 17.1895H87.3461C87.5601 18.2836 88.024 19.2231 88.7375 20.0081C89.4511 20.793 90.3787 21.3995 91.5204 21.8277C92.6621 22.232 93.9703 22.4342 95.445 22.4342C97.229 22.4342 98.7512 22.125 100.012 21.5066C101.272 20.8881 102.236 19.9962 102.902 18.8307C103.592 17.6652 103.936 16.2619 103.936 14.6206C103.936 12.9794 103.592 11.5761 102.902 10.4106C102.236 9.24512 101.272 8.35317 100.012 7.73475C98.7512 7.11632 97.229 6.80711 95.445 6.80711C93.9703 6.80711 92.6621 7.02118 91.5204 7.44932C90.4025 7.85367 89.4868 8.44831 88.7732 9.23323C88.0596 9.99437 87.5839 10.9339 87.3461 12.0518H79.9964C80.3293 9.76841 81.1856 7.78232 82.5652 6.09354C83.9447 4.38099 85.7406 3.049 87.9526 2.09758C90.1884 1.14616 92.7097 0.670448 95.5164 0.670448C98.6561 0.670448 101.403 1.25319 103.758 2.41868C106.113 3.58417 107.944 5.21348 109.253 7.3066C110.585 9.39973 111.251 11.8377 111.251 14.6206C111.251 17.4036 110.585 19.8416 109.253 21.9347C107.944 24.0278 106.113 25.6571 103.758 26.8226C101.403 27.9881 98.6561 28.5709 95.5164 28.5709ZM107.255 17.0825H91.0209V12.1588H107.255V17.0825ZM154.151 1.2413V28H147.122V3.88149L148.692 4.05988L138.346 28H130.853L120.471 4.13124L122.076 3.95285V28H115.048V1.2413H126.465L136.062 24.2181H133.208L142.734 1.2413H154.151ZM173.857 28.5709C170.694 28.5709 167.911 27.9881 165.509 26.8226C163.13 25.6571 161.275 24.0278 159.943 21.9347C158.634 19.8416 157.98 17.4036 157.98 14.6206C157.98 11.8377 158.634 9.39973 159.943 7.3066C161.275 5.21348 163.13 3.58417 165.509 2.41868C167.911 1.25319 170.694 0.670448 173.857 0.670448C177.044 0.670448 179.827 1.25319 182.206 2.41868C184.584 3.58417 186.44 5.21348 187.772 7.3066C189.104 9.39973 189.77 11.8377 189.77 14.6206C189.77 17.4036 189.104 19.8416 187.772 21.9347C186.44 24.0278 184.584 25.6571 182.206 26.8226C179.827 27.9881 177.044 28.5709 173.857 28.5709ZM173.857 21.9704C175.594 21.9704 177.092 21.6731 178.353 21.0784C179.613 20.4838 180.577 19.6394 181.243 18.5453C181.932 17.4511 182.277 16.1429 182.277 14.6206C182.277 13.0984 181.932 11.7902 181.243 10.696C180.577 9.60191 179.613 8.75752 178.353 8.16288C177.092 7.56825 175.594 7.27093 173.857 7.27093C172.145 7.27093 170.658 7.56825 169.397 8.16288C168.137 8.75752 167.162 9.60191 166.472 10.696C165.782 11.7902 165.437 13.0984 165.437 14.6206C165.437 16.1429 165.782 17.4511 166.472 18.5453C167.162 19.6394 168.137 20.4838 169.397 21.0784C170.658 21.6731 172.145 21.9704 173.857 21.9704ZM211.393 14.9061L211.999 13.5146C214.069 13.5622 215.769 13.8833 217.101 14.4779C218.457 15.0488 219.468 15.8575 220.134 16.9041C220.8 17.9268 221.133 19.1161 221.133 20.4719C221.133 21.9228 220.8 23.2191 220.134 24.3608C219.468 25.4787 218.469 26.3707 217.137 27.0367C215.829 27.6789 214.188 28 212.213 28H192.448L194.517 14.2639L192.448 1.2413H211.5C213.973 1.2413 215.9 1.82404 217.28 2.98954C218.659 4.13124 219.349 5.72487 219.349 7.77042C219.349 8.88834 219.087 9.95869 218.564 10.9815C218.041 12.0042 217.196 12.8724 216.031 13.586C214.889 14.2758 213.343 14.7158 211.393 14.9061ZM199.762 26.2874L196.907 22.8267H210.215C211.286 22.8267 212.118 22.565 212.713 22.0417C213.307 21.5184 213.605 20.793 213.605 19.8654C213.605 18.9377 213.284 18.2004 212.641 17.6533C211.999 17.0825 211.048 16.797 209.787 16.797H198.798V11.7307H208.788C209.644 11.7307 210.358 11.481 210.929 10.9815C211.524 10.4582 211.821 9.75651 211.821 8.87645C211.821 8.16288 211.571 7.58014 211.072 7.12821C210.572 6.6525 209.859 6.41465 208.931 6.41465H196.943L199.762 2.95386L201.581 14.2639L199.762 26.2874ZM252.808 1.2413V23.8613L250.168 21.4352H257.447V33.3874H250.489V26.6085L252.523 28H224.765V1.2413H232.151V23.8613L229.76 21.4352H248.028L245.423 23.8613V1.2413H252.808ZM260.966 28V1.2413H268.352V25.5025L265.034 22.1844H275.452C276.665 22.1844 277.604 21.8752 278.27 21.2568C278.96 20.6384 279.305 19.8059 279.305 18.7593C279.305 17.689 278.96 16.8565 278.27 16.2619C277.604 15.6672 276.665 15.3699 275.452 15.3699H264.391V9.51866H275.915C278.175 9.51866 280.114 9.91112 281.731 10.696C283.372 11.4572 284.621 12.5275 285.477 13.9071C286.357 15.2866 286.797 16.9041 286.797 18.7593C286.797 20.6146 286.357 22.2439 285.477 23.6473C284.621 25.0268 283.372 26.0972 281.731 26.8583C280.114 27.6194 278.175 28 275.915 28H260.966ZM289.009 1.2413H296.395V28H289.009V1.2413Z" fill="#FF7CCE"/>
</svg>
